<svg width="30" height="30" viewBox="0 0 30 30" fill="none" xmlns="http://www.w3.org/2000/svg">
<path fill-rule="evenodd" clip-rule="evenodd" d="M6.18661 12.5L13.7628 4.92389L14.7056 5.8667L7.12942 13.4428L6.18661 12.5Z" fill="#3369F3"/>
<path fill-rule="evenodd" clip-rule="evenodd" d="M8.70077 15.0142L16.2769 7.43805L17.2197 8.38086L9.64358 15.957L8.70077 15.0142Z" fill="#3369F3"/>
<path fill-rule="evenodd" clip-rule="evenodd" d="M14.0435 20.3565L21.6197 12.7803L22.5625 13.7231L14.9864 21.2993L14.0435 20.3565Z" fill="#3369F3"/>
<path fill-rule="evenodd" clip-rule="evenodd" d="M16.5572 22.8706L24.1334 15.2945L25.0762 16.2373L17.5 23.8134L16.5572 22.8706Z" fill="#3369F3"/>
<path fill-rule="evenodd" clip-rule="evenodd" d="M16.5574 22.8709C13.9423 25.486 9.71178 25.4954 7.10829 22.8919C4.50479 20.2884 4.51421 16.0579 7.12933 13.4428L6.18652 12.5C3.04838 15.6381 3.03708 20.7148 6.16127 23.839C9.28546 26.9632 14.3621 26.9518 17.5002 23.8137L16.5574 22.8709Z" fill="#3369F3"/>
<path fill-rule="evenodd" clip-rule="evenodd" d="M21.6195 12.7806L22.5623 13.7234C25.003 11.2826 25.0118 7.3341 22.5819 4.90417C20.152 2.47424 16.2035 2.48304 13.7627 4.92381L14.7055 5.86662C16.6233 3.94887 19.7257 3.94196 21.6349 5.85119C23.5441 7.76042 23.5372 10.8628 21.6195 12.7806Z" fill="#3369F3"/>
<path fill-rule="evenodd" clip-rule="evenodd" d="M8.70068 15.0146C6.95727 16.7581 6.95099 19.5784 8.68665 21.3141C10.4223 23.0497 13.2427 23.0435 14.9861 21.3L14.0433 20.3572C12.8229 21.5776 10.8486 21.582 9.63367 20.3671C8.41871 19.1521 8.4231 17.1778 9.64349 15.9575L8.70068 15.0146Z" fill="#3369F3"/>
</svg>
